/* XPM */
static char *add_cam_xpm[] = {
/* columns rows colors chars-per-pixel */
"24 24 60 1 ",
"  c #72BE2E",
". c #73BE2E",
"X c #65B336",
"o c #68B634",
"O c #6FBB30",
"+ c #6CB832",
"@ c #6CB932",
"# c #69B23C",
"$ c #7EC827",
"% c #7FC827",
"& c #7FC927",
"* c #75C02C",
"= c #76C02C",
"- c #76C12C",
"; c #79C32B",
": c #7CC629",
"> c #7EC828",
", c #7FC828",
"< c #6EB144",
"1 c #7FAC65",
"2 c #8DD41F",
"3 c #8ED61F",
"4 c #90D71E",
"5 c #91D81D",
"6 c #93D91C",
"7 c #92D81D",
"8 c #94DA1C",
"9 c #96DB1D",
"0 c #86CF23",
"q c #81CA26",
"w c #84CD24",
"e c #8BD321",
"r c #88D022",
"t c #8DD420",
"y c #8AD125",
"u c #8CD324",
"i c #8CD32A",
"p c #8CD22E",
"a c #8CD22F",
"s c #96DB20",
"d c #97DB23",
"f c #97DC21",
"g c #99DD27",
"h c #90D52B",
"j c #92D636",
"k c #94D739",
"l c #A2E23D",
"z c #83AC6B",
"x c #88AB73",
"c c #98D941",
"v c #99DA43",
"b c #9BDB48",
"n c #A0DF4F",
"m c #A4E343",
"M c #AAE650",
"N c #AAE651",
"B c #9CA795",
"V c #A1A69F",
"C c #A5A5A5",
"Z c None",
/* pixels */
"ZZZZZZZZZZNNNNZZZZZZZZZZ",
"ZZZZZZZZZlf89gmZZZZZZZZZ",
"ZZZZZZZZZs8888fZZZZZZZZZ",
"ZZZZZZZZZ666688ZZZZZZZZZ",
"ZZZZZZZZZ844448ZZZZZZZZZ",
"ZZZZZZZZZ444444ZZZZZZZZZ",
"ZZZZZZZZZ333333ZZZZZZZZZ",
"ZZZZZZZZZtttt3tZZZZZZZZZ",
"ZZZZZZZZnutrttiZZZZZZZZZ",
"ZvcjjjjjjyrrrrikjjjjjbkZ",
"Za0000w000000000000000aZ",
"ZwwwwwwwwwwwwwwwwwwqwwwZ",
"ZqqqqqqqqqqqqqqqqqqqqqqZ",
"Z&&&,,,,q:qqq::q:&qq%&&Z",
"ZZZZZZZZZ::::::ZZZZZZZZZ",
"ZZZZZZZZZ;;;;;;ZZZZZZZZZ",
"ZZZZZZZZZ------ZZZZZZZZZ",
"ZZZZZZZZZ....  ZZZZZZZZZ",
"ZZZZZZZZZ@ @OOOZZZZZZZZZ",
"ZZZZZZZZZ@+@@@+ZZZZZZZZZ",
"ZZZZZZZZZooooooZZZZZZZZZ",
"ZZZZZZZZZ#XXXX<ZZZZZZZZZ",
"ZZZCCCCCCBz11xVCCCCCCCZZ",
"ZZZZZZZZZZZZZZZZZZZZZZZZ"
};
