/* XPM */
static char *choose_directory_xpm[] = {
/* columns rows colors chars-per-pixel */
"22 22 193 2 ",
"   c #CC5717",
".  c #CD5818",
"X  c #CF5E1A",
"o  c #CC5C1C",
"O  c #CC5C1D",
"+  c #CD5C1D",
"@  c #CD5D1D",
"#  c #CD5D1E",
"$  c #CE5D1E",
"%  c #CE5E1F",
"&  c #CF5E1F",
"*  c #CB670A",
"=  c #CC640A",
"-  c #CA6B0B",
";  c #CC6B0D",
":  c #CE671B",
">  c #CF621F",
",  c #CE691F",
"<  c #CF6A1E",
"1  c #E47F1F",
"2  c #CD6022",
"3  c #CE6224",
"4  c #CF6224",
"5  c #CF6325",
"6  c #CE6726",
"7  c #CE6627",
"8  c #CE6727",
"9  c #CF6D21",
"0  c #CF6E22",
"q  c #CE6826",
"w  c #CF6927",
"e  c #CD6428",
"r  c #CD6528",
"t  c #CD6529",
"y  c #CE6528",
"u  c #CE6629",
"i  c #CF662A",
"p  c #CF672B",
"a  c #CF6828",
"s  c #D06525",
"d  c #D06A28",
"f  c #D56B2B",
"g  c #D66D28",
"h  c #D3692C",
"j  c #D2682D",
"k  c #D1682E",
"l  c #D1692E",
"z  c #D06A2F",
"x  c #D4692E",
"c  c #D76C2C",
"v  c #CF7125",
"b  c #D87225",
"n  c #D87027",
"m  c #DC7326",
"M  c #D97524",
"N  c #DA7724",
"B  c #DF7725",
"V  c #D67825",
"C  c #DA7823",
"Z  c #DA7923",
"A  c #DA7A23",
"S  c #D97A24",
"D  c #D87A25",
"F  c #DA702A",
"G  c #DE742B",
"H  c #D16831",
"J  c #D06A30",
"K  c #D46931",
"L  c #D76D33",
"P  c #DB7130",
"I  c #DD7530",
"U  c #E07922",
"Y  c #E27D20",
"T  c #E77E23",
"R  c #E27A26",
"E  c #E77F24",
"W  c #E27A29",
"Q  c #DF831F",
"!  c #EC8E17",
"~  c #EE8E16",
"^  c #EF8E16",
"/  c #E4811D",
"(  c #E4831C",
")  c #E5831D",
"_  c #E3851C",
"`  c #E2851D",
"'  c #E1851F",
"]  c #E1871E",
"[  c #E5851D",
"{  c #ED861E",
"}  c #E48A1C",
"|  c #E88B1B",
" . c #EB8C19",
".. c #EA8D19",
"X. c #EF881D",
"o. c #F08E16",
"O. c #F18D19",
"+. c #F18E18",
"@. c #F18C1A",
"#. c #F08A1C",
"$. c #F19015",
"%. c #F39116",
"&. c #F59118",
"*. c #F7911C",
"=. c #EA8220",
"-. c #EB8321",
";. c #EF8720",
":. c #F28A21",
">. c #F48C23",
",. c #F68E24",
"<. c #F88F26",
"1. c #F89021",
"2. c #F89024",
"3. c #D38242",
"4. c #D18146",
"5. c #D38748",
"6. c #D48C54",
"7. c #D49965",
"8. c #D79A64",
"9. c #D9A06B",
"0. c #DBA16C",
"q. c #DAA46F",
"w. c #DCA46F",
"e. c #DBA772",
"r. c #DCA771",
"t. c #DDA574",
"y. c #DFA774",
"u. c #D6A877",
"i. c #DCA974",
"p. c #DCA875",
"a. c #EBA762",
"s. c #EBA865",
"d. c #EBB26A",
"f. c #EBB36C",
"g. c #E1A975",
"h. c #E2A974",
"j. c #E4AB79",
"k. c #EBBA70",
"l. c #DAB68B",
"z. c #DEC5A2",
"x. c #DAC4A6",
"c. c #E2D3B9",
"v. c #D0D0D0",
"b. c gray82",
"n. c LightGray",
"m. c #D5D5D5",
"M. c #D8D7D3",
"N. c #D8D8D8",
"B. c gray85",
"V. c #DADADA",
"C. c gray86",
"Z. c #DEDDD9",
"A. c #DFDEDA",
"S. c gainsboro",
"D. c #DDDDDD",
"F. c gray87",
"G. c #DFDFDF",
"H. c #E1DFDC",
"J. c #E3E1DE",
"K. c #F3E1D1",
"L. c #F0E4D9",
"P. c gray88",
"I. c #E2E2E2",
"U. c gray89",
"Y. c #E4E3E0",
"T. c #E4E4E4",
"R. c gray90",
"E. c #E6E6E6",
"W. c #E7E7E6",
"Q. c #E7E7E7",
"!. c #EBE8E2",
"~. c gray91",
"^. c #E9E9E9",
"/. c #EAEAEA",
"(. c gray92",
"). c #ECECEC",
"_. c gray93",
"`. c #EEEEEE",
"'. c #EFEFEF",
"]. c #F6EEE7",
"[. c #F7F1EC",
"{. c gray94",
"}. c #F1F1F1",
"|. c gray95",
" X c #F3F3F3",
".X c #F4F4F4",
"XX c gray96",
"oX c #F6F6F6",
"OX c gray97",
"+X c #F8F8F8",
"@X c #F9F9F9",
"#X c gray98",
"$X c None",
/* pixels */
"$X$X$X$X$X$X$X$X$X$X$X$X$X$X$X$X$X$X$X$X$X$X",
"$X$X$X$X$X$X$X$X$X$X$X$X$X$X$X$X$X$X$X$X$X$X",
"$X$X$X$X$X$X$X$X$X$X$X$X$X$X$X$X$X$X$X$X$X$X",
"$X$X$X$X$X$X$X$X$X$X$X$X$X$X$X$X$X$X$X$X$X$X",
"$XC.).).).}.).).Q.$X$X$X$X$X$X$X$X$X$X$X$X$X",
"$XR.L.t.g.g.g.j.[.OXS.$X$X$X$X$X$X$X$X$X$X$X",
"$XR.K.a.f.k.d.s.].OXOX}.{.}.).)././.R.R.C.$X",
"$XR.@X@X@X@X@XOXOX X}.}.).).)./.R.R.R.P.C.$X",
"$XR.OX/.OX/.).}.R.}.R./.T.P.~.C.T.N.C.C.C.$X",
"$XP..X.X}.OX}.}.}.).).)./.~.R.Y.J.J.A.A.M.$X",
"$XG.}.R.).R.R./.P.(.S.R.H.x.5.9 < 0 v 0 : ; ",
"$XS.!.e.0.t.t.p.e.r.0.8.3.X .   . . . .   = ",
"$XC.c.> # # & # + + + + + + # O + + + o + - ",
"$XC.z.5 3 3 s s s s 3 3 3 3 3 3 4 4 4 4 # - ",
"$Xm.l.8 i u u i e u e u e 8 u 8 d w a a a $X",
"$Xn.u.p k k H k f f g n b N N C C D D D V $X",
"$Xb.8.H H K c F b R U 1 1 1 [ ( [ _ ` ` Q $X",
"$Xb.6.L P G R T -.{ { #.#.O.O.o.o.!  .| } $X",
"$Xb.4.I W E -.;.:.>.,.<.1.1.*.&.%.%.!  .` $X",
"$X$X$X$X$X$X$X$X$X$X$X$X$X$X$X$X$X$X$X$X$X$X",
"$X$X$X$X$X$X$X$X$X$X$X$X$X$X$X$X$X$X$X$X$X$X",
"$X$X$X$X$X$X$X$X$X$X$X$X$X$X$X$X$X$X$X$X$X$X"
};
