/* XPM */
static char * lightning_green_disabled_xpm[] = {
"22 22 3 1",
" 	c #ffffff",
".	c #009900",
"+	c #99FF66",
"                      ",
"         ..........   ",
"        .++++++++.    ",
"       .++++++++.     ",
"      .++++++++.      ",
"     .++++++++.       ",
"    .......++.        ",
"         .+++.        ",
"        .+++.         ",
"       .+++.          ",
"       .++........    ",
"      .++++++++++.    ",
"      .......+++.     ",
"            .++.      ",
"           .++.       ",
"          .++.        ",
"          .+.         ",
"         .+.          ",
"         +.           ",
"        ..            ",
"        .             ",
"                      "};
