/* XPM */
static char * media_playback_stop_xpm[] = {
"22 22 122 2",
"  	c None",
". 	c #023502",
"+ 	c #023302",
"@ 	c #023602",
"# 	c #023702",
"$ 	c #105010",
"% 	c #2B7B2E",
"& 	c #2E8230",
"* 	c #2C812F",
"= 	c #2B812F",
"- 	c #2B812E",
"; 	c #2A812D",
"> 	c #29802D",
", 	c #28802C",
"' 	c #28802B",
") 	c #267F29",
"! 	c #247E26",
"~ 	c #257E27",
"{ 	c #277E2A",
"] 	c #1A651C",
"^ 	c #1A631B",
"/ 	c #4CA751",
"( 	c #A9D7AC",
"_ 	c #A8D7AB",
": 	c #A7D6AA",
"< 	c #A6D6AA",
"[ 	c #A5D5A9",
"} 	c #A5D5A8",
"| 	c #A4D5A7",
"1 	c #A3D4A7",
"2 	c #A3D4A6",
"3 	c #A0D3A3",
"4 	c #9DD2A1",
"5 	c #9FD3A2",
"6 	c #29852C",
"7 	c #064006",
"8 	c #1A631A",
"9 	c #48A74D",
"0 	c #48AF4F",
"a 	c #46AE4D",
"b 	c #45AD4C",
"c 	c #43AC4A",
"d 	c #41AC49",
"e 	c #40AB47",
"f 	c #3EAA45",
"g 	c #3CAA44",
"h 	c #3AA942",
"i 	c #34A63C",
"j 	c #2FA537",
"k 	c #32A43A",
"l 	c #27842B",
"m 	c #053F06",
"n 	c #19631A",
"o 	c #47A74C",
"p 	c #47AE4E",
"q 	c #44AD4B",
"r 	c #42AC49",
"s 	c #3DA944",
"t 	c #3BA942",
"u 	c #39A840",
"v 	c #33A63B",
"w 	c #30A538",
"x 	c #33A43A",
"y 	c #28832B",
"z 	c #053E06",
"A 	c #19651A",
"B 	c #45A64C",
"C 	c #45AE4C",
"D 	c #3DAA44",
"E 	c #39A841",
"F 	c #36A73E",
"G 	c #31A539",
"H 	c #28842B",
"I 	c #054006",
"J 	c #44A64B",
"K 	c #40AB48",
"L 	c #3EAB46",
"M 	c #3AA841",
"N 	c #37A73F",
"O 	c #32A53A",
"P 	c #44A54A",
"Q 	c #42AC4A",
"R 	c #3EAA46",
"S 	c #3BA943",
"T 	c #33A53B",
"U 	c #30A438",
"V 	c #18641A",
"W 	c #42A448",
"X 	c #40AC48",
"Y 	c #3FAB46",
"Z 	c #31A639",
"` 	c #186419",
" .	c #41A346",
"..	c #3CA943",
"+.	c #30A539",
"@.	c #166418",
"#.	c #38A03E",
"$.	c #34A63B",
"%.	c #32A63A",
"&.	c #054005",
"*.	c #349E3B",
"=.	c #30A638",
"-.	c #064106",
";.	c #359E3B",
">.	c #2FA538",
",.	c #33A53A",
"'.	c #2A862D",
").	c #073F07",
"!.	c #39A03F",
"~.	c #36A73D",
"{.	c #34A53D",
"].	c #34A53C",
"^.	c #39A640",
"/.	c #2C862F",
"(.	c #064107",
"_.	c #105311",
":.	c #29842D",
"<.	c #29832D",
"[.	c #1D6B1E",
"}.	c #033A03",
"|.	c #033B03",
"1.	c #033D03",
"                                            ",
"                                            ",
"                                            ",
"          . + @ @ @ @ @ @ @ # # #           ",
"      $ % & * = - ; ; > , ' ) ! ~ { ]       ",
"      ^ / ( _ : < [ } | 1 2 3 4 4 5 6 7     ",
"      8 9 0 a b c d e f g h i j j k l m     ",
"      n o p b q r e f s t u v w w x y z     ",
"      A B C q r e f D t E F G w w x H I     ",
"      A J q r K L s t M N O w w w x H I     ",
"      A P Q K R D S M N T U w w w x H I     ",
"      V W X Y D S E F O w w w Z w x H I     ",
"      `  .R ..E F v +.w w w Z Z w x H I     ",
"      @.#.$.%.G w w w w w Z Z Z w x H &.    ",
"      @.*.w w w w w =.=.=.=.=.Z w x H -.    ",
"      ` ;.w >.j j j j j j j j >.j ,.'.).    ",
"      V !.~.{.{.{.{.{.{.{.{.{.{.].^./.(.    ",
"      _.{ :.y y y y y y y y y y y <.[.      ",
"          }.|.|.1.1.1.1.1.1.1.1.|.}.        ",
"                                            ",
"                                            ",
"                                            "};
