/* XPM */
static char * media_record_xpm[] = {
"22 22 210 2",
"  	c None",
". 	c #BA0707",
"+ 	c #B60C0C",
"@ 	c #B80F0F",
"# 	c #B70E0E",
"$ 	c #B70D0D",
"% 	c #BD0B0B",
"& 	c #B80C0C",
"* 	c #BB1515",
"= 	c #C42424",
"- 	c #CC3030",
"; 	c #CD2828",
"> 	c #C91616",
", 	c #C71414",
"' 	c #C31313",
") 	c #BE0F0F",
"! 	c #BA0D0D",
"~ 	c #BA1212",
"{ 	c #C62828",
"] 	c #D44444",
"^ 	c #DB4C4C",
"/ 	c #DD4949",
"( 	c #DB3838",
"_ 	c #D41111",
": 	c #D30808",
"< 	c #D10E0E",
"[ 	c #CF1414",
"} 	c #C61414",
"| 	c #BD1010",
"1 	c #BC1313",
"2 	c #CB3434",
"3 	c #DB5151",
"4 	c #DF4D4D",
"5 	c #DD4444",
"6 	c #DC3E3E",
"7 	c #D51616",
"8 	c #D10000",
"9 	c #D20000",
"0 	c #D20202",
"a 	c #CA1515",
"b 	c #BE1010",
"c 	c #BC1010",
"d 	c #CB3333",
"e 	c #DC5353",
"f 	c #DE4C4C",
"g 	c #DC3F3F",
"h 	c #DB3A3A",
"i 	c #DA3636",
"j 	c #D72020",
"k 	c #D20C0C",
"l 	c #CA1919",
"m 	c #BC1111",
"n 	c #B80D0D",
"o 	c #C42626",
"p 	c #DB5252",
"q 	c #DD4646",
"r 	c #DC4040",
"s 	c #DC3B3B",
"t 	c #DA3333",
"u 	c #D72323",
"v 	c #D20505",
"w 	c #D20404",
"x 	c #D41B1B",
"y 	c #C81D1D",
"z 	c #B70F0F",
"A 	c #BC1414",
"B 	c #D24242",
"C 	c #DF5151",
"D 	c #DC4141",
"E 	c #DB3C3C",
"F 	c #DB3737",
"G 	c #D92F2F",
"H 	c #D72222",
"I 	c #D30606",
"J 	c #D61919",
"K 	c #D32C2C",
"L 	c #BF1616",
"M 	c #C22222",
"N 	c #DB5050",
"O 	c #DE4949",
"P 	c #DC4242",
"Q 	c #DC3D3D",
"R 	c #DA3434",
"S 	c #D82A2A",
"T 	c #D61E1E",
"U 	c #D20303",
"V 	c #D30F0F",
"W 	c #D61D1D",
"X 	c #D83232",
"Y 	c #C62424",
"Z 	c #BB0C0C",
"` 	c #BA0C0C",
" .	c #CA3030",
"..	c #DE5050",
"+.	c #DC4444",
"@.	c #DB3939",
"#.	c #DA3535",
"$.	c #D93030",
"%.	c #D82B2B",
"&.	c #D72626",
"*.	c #D51818",
"=.	c #D20808",
"-.	c #D41616",
";.	c #D72424",
">.	c #CF3333",
",.	c #BA0F0F",
"'.	c #B90F0F",
").	c #CE3A3A",
"!.	c #DE4B4B",
"~.	c #D82C2C",
"{.	c #D82727",
"].	c #D41212",
"^.	c #D40F0F",
"/.	c #D61C1C",
"(.	c #D44040",
"_.	c #BE1414",
":.	c #B81111",
"<.	c #CF3C3C",
"[.	c #DB3B3B",
"}.	c #DA3232",
"|.	c #D92D2D",
"1.	c #D82828",
"2.	c #D30909",
"3.	c #D20707",
"4.	c #D93131",
"5.	c #DD4141",
"6.	c #D54646",
"7.	c #BC1717",
"8.	c #BB1212",
"9.	c #CF3A3A",
"0.	c #DD4343",
"a.	c #D92E2E",
"b.	c #D82929",
"c.	c #D20101",
"d.	c #D30E0E",
"e.	c #DA3737",
"f.	c #DE4848",
"g.	c #D64A4A",
"h.	c #BB1717",
"i.	c #CC3232",
"j.	c #D72525",
"k.	c #D20606",
"l.	c #D41515",
"m.	c #DB3E3E",
"n.	c #DF5050",
"o.	c #D54949",
"p.	c #BC1515",
"q.	c #B90E0E",
"r.	c #C62525",
"s.	c #DA3F3F",
"t.	c #DA3030",
"u.	c #D72121",
"v.	c #D51717",
"w.	c #D30707",
"x.	c #D51B1B",
"y.	c #DB3636",
"z.	c #DD4545",
"A.	c #E05858",
"B.	c #CE3C3C",
"C.	c #B91010",
"D.	c #BF1818",
"E.	c #D53C3C",
"F.	c #D61F1F",
"G.	c #D51414",
"H.	c #DD5A5A",
"I.	c #C52828",
"J.	c #BC0B0B",
"K.	c #CA2929",
"L.	c #D41414",
"M.	c #D30A0A",
"N.	c #D10202",
"O.	c #D30D0D",
"P.	c #D51A1A",
"Q.	c #E05757",
"R.	c #D24848",
"S.	c #BD1616",
"T.	c #BE1313",
"U.	c #D01E1E",
"V.	c #D40B0B",
"W.	c #D62222",
"X.	c #DF4F4F",
"Y.	c #DA5656",
"Z.	c #C22424",
"`.	c #C21313",
" +	c #D01B1B",
".+	c #D30C0C",
"++	c #D10101",
"@+	c #D51919",
"#+	c #DA5353",
"$+	c #C82E2E",
"%+	c #B80E0E",
"&+	c #BF1313",
"*+	c #CD1C1C",
"=+	c #D31313",
"-+	c #DB3535",
";+	c #DD4747",
">+	c #D74848",
",+	c #C62929",
"'+	c #C61818",
")+	c #D11B1B",
"!+	c #D32020",
"~+	c #D52B2B",
"{+	c #D53636",
"]+	c #D33A3A",
"^+	c #CB2F2F",
"/+	c #BF1A1A",
"(+	c #C21818",
"_+	c #C21B1B",
":+	c #C11A1A",
"<+	c #BB1414",
"                . + @ # $ %                 ",
"            & * = - ; > , ' ) !             ",
"          ~ { ] ^ / ( _ : < [ } |           ",
"        1 2 3 4 5 6 ( 7 8 9 0 < a b         ",
"      c d e f 5 g h i j 0 9 9 9 k l m       ",
"    n o p 4 q r s i t u v 9 9 8 w x y z     ",
"    A B C q D E F t G H I 9 9 8 : J K L     ",
"    M N O P Q ( R G S T v 9 9 U V W X Y Z   ",
"  `  ...+.6 @.#.$.%.&.*.0 9 8 =.-.;.F >.,.  ",
"  '.).!.g h i $.~.{.H ].8 9 0 ^./.%.E (._.  ",
"  :.<.q [.i }.|.1.u /.2.8 9 3.7 u 4.5.6.7.  ",
"  8.9.0.F t a.b.;.T ].c.8 0 d./.S e.f.g.h.  ",
"  ! i.D t G S j.j 7 k.9 8 3.l.u 4.m.n.o.p.  ",
"  q.r.s.t.S &.u.v.w.9 9 0 d.x.S y.z.A.B.C.  ",
"    D.E.t.&.F.G.3.8 9 9 3.l.H $.Q 4 H.I.J.  ",
"    '.K.%.L.M.0 9 9 9 N.O.P.b.i 5 Q.R.S.    ",
"      T.U.V.8 9 9 9 9 k.L.W.G E X.Y.Z.n     ",
"      & `. +.+9 8 8 ++.+@+1.i O #+$+$       ",
"        %+&+*+=+: 0 3.L.u -+;+>+,+'.        ",
"          $ b '+*+)+!+~+{+]+^+/+%+          ",
"              % ,._.(+_+:+<+'.              ",
"                                            "};
