/* XPM */
static char *remove_cam_xpm[] = {
/* columns rows colors chars-per-pixel */
"24 24 226 2 ",
"   c #580D0F",
".  c #590D0F",
"X  c #431717",
"o  c #7F1A1D",
"O  c #5B1F20",
"+  c #622222",
"@  c #7D2124",
"#  c #7E2225",
"$  c #712728",
"%  c #9D1C1F",
"&  c #A11C1F",
"*  c #A61C1F",
"=  c #AB1B1F",
"-  c #AD1B1F",
";  c #AF1B1E",
":  c #B6161B",
">  c #B2171C",
",  c #B2171D",
"<  c #B6161C",
"1  c #B6171C",
"2  c #BC161B",
"3  c #BC161C",
"4  c #BC171C",
"5  c #B0191D",
"6  c #B1191D",
"7  c #B3181D",
"8  c #B2181E",
"9  c #B3181E",
"0  c #B3191E",
"q  c #B2191F",
"w  c #B3191F",
"e  c #B21B1E",
"r  c #B5181D",
"t  c #B6191D",
"y  c #B5191E",
"u  c #B6191E",
"i  c #B51A1E",
"p  c #BB191E",
"a  c #BC181D",
"s  c #BC181E",
"d  c #991C20",
"f  c #B41B20",
"g  c #B71A20",
"h  c #B71A21",
"j  c #B51C21",
"k  c #B51D22",
"l  c #B71C22",
"z  c #B61D23",
"x  c #BD1B20",
"c  c #B81C21",
"v  c #BA1F25",
"b  c #BC1F25",
"n  c #80272A",
"m  c #82272A",
"M  c #822D2E",
"N  c #832D2E",
"B  c #942124",
"V  c #9F2528",
"C  c #892F30",
"Z  c #8D2E31",
"A  c #8E3739",
"S  c #903132",
"D  c #903133",
"F  c #903233",
"G  c #993336",
"H  c #A12427",
"J  c #A02428",
"K  c #A32528",
"L  c #BC2026",
"P  c #BC2127",
"I  c #BC2228",
"U  c #BD2228",
"Y  c #BD2329",
"T  c #AC3436",
"R  c #A63539",
"E  c #A4383B",
"W  c #A93B3F",
"Q  c #AB3A3E",
"!  c #AB3B3E",
"~  c #B53336",
"^  c #BF393C",
"/  c #C5161B",
"(  c #C5171C",
")  c #C5181E",
"_  c #C41A1F",
"`  c #C51A1F",
"'  c #CF181D",
"]  c #CE191D",
"[  c #CD1A1E",
"{  c #D0171C",
"}  c #DB171B",
"|  c #DB171C",
" . c #D0181C",
".. c #D9191D",
"X. c #DB181C",
"o. c #DA191D",
"O. c #D8191E",
"+. c #E21A1F",
"@. c #E31A1F",
"#. c #C31C21",
"$. c #C22F35",
"%. c #C33036",
"&. c #C43138",
"*. c #C43339",
"=. c #C5343A",
"-. c #C5353B",
";. c #C6343B",
":. c #C5373D",
">. c #C8353C",
",. c #C03B3F",
"<. c #C8383E",
"1. c #C9383F",
"2. c #B43D40",
"3. c #C93A40",
"4. c #CC3B42",
"5. c #C83E41",
"6. c #C93C42",
"7. c #CA3D44",
"8. c #CA3F45",
"9. c #CA3F46",
"0. c #CD3C44",
"q. c #CD3E45",
"w. c #CF3F47",
"e. c #AC4045",
"r. c #AE464A",
"t. c #AF494E",
"y. c #B44246",
"u. c #BB4647",
"i. c #B74748",
"p. c #B4464A",
"a. c #B54B4F",
"s. c #CB4043",
"d. c #CA4047",
"f. c #CD4047",
"g. c #CF4047",
"h. c #CE434A",
"j. c #CD4448",
"k. c #CE464D",
"l. c #CA494C",
"z. c #CF484E",
"x. c #C84C4E",
"c. c #CA4D4E",
"v. c #D34048",
"b. c #D34149",
"n. c #D3434A",
"m. c #D0444B",
"M. c #D1474E",
"N. c #D6464E",
"B. c #D8484F",
"V. c #CF4950",
"C. c #CF4B51",
"Z. c #CB4F50",
"A. c #D24B52",
"S. c #D44850",
"D. c #D64B53",
"F. c #D24E55",
"G. c #D04F56",
"H. c #D44D54",
"J. c #DB4D51",
"K. c #D94D54",
"L. c #D94D55",
"P. c #D55053",
"I. c #D25056",
"U. c #D45455",
"Y. c #D95455",
"T. c #D75158",
"R. c #D55259",
"E. c #D3545B",
"W. c #D4555B",
"Q. c #D4565C",
"!. c #D4565D",
"~. c #D6565D",
"^. c #DF575A",
"/. c #DA545C",
"(. c #D8575F",
"). c #DC565E",
"_. c #D5585F",
"`. c #E45B5D",
"'. c #D55B61",
"]. c #D65D63",
"[. c #D75F65",
"{. c #DB5961",
"}. c #DB5B62",
"|. c #D95D64",
" X c #DD5C64",
".X c #E85E61",
"XX c #C86365",
"oX c #D76067",
"OX c #D86066",
"+X c #D86269",
"@X c #DB636A",
"#X c #DC6168",
"$X c #DA646B",
"%X c #DC646A",
"&X c #DE646B",
"*X c #DB676E",
"=X c #DF656D",
"-X c #DD676F",
";X c #D9686E",
":X c #DB6A70",
">X c #DC6971",
",X c #DF6A71",
"<X c #DC6D73",
"1X c #DE6E75",
"2X c #DC6F76",
"3X c #DC7076",
"4X c #DC747A",
"5X c #DE747B",
"6X c #DF777E",
"7X c #F26264",
"8X c #EE6E72",
"9X c #FB6D70",
"0X c #C67F80",
"qX c #DF7A80",
"wX c #DF7B82",
"eX c #DF7E85",
"rX c #E07980",
"tX c #E27F86",
"yX c #E2838A",
"uX c #E2868C",
"iX c #E2888E",
"pX c #FF8689",
"aX c #E48A90",
"sX c #E28C92",
"dX c #E58F95",
"fX c None",
/* pixels */
"fXfXfXfXfXfXfXfXfXfXfXfXfXfXfXfXfXfXyXfXfXfXfXfX",
"fXfXfXfXfXx.C fXfXfXfXfXfXfXfXfXfXpXXXM fXfXfXfX",
"fXfXfXfXJ.@XQ C fXfXfXfXfXfXfXfX9X8XiXa.F fXfXfX",
"fXfXfXj.'.$X8XQ M fXfXfXfXfXfX7X.XiXdXiXp.F fXfX",
"fXfX,.K.). X#X>XE $ fXfXfXfX`.^.yXyXyXyXrXy.fXfX",
"fXfXb.B.K./. X#X#XG O fXfXU.P.4XwX6X6X4X1X>XfXfX",
"fXfXfXb.N.D.T.'.|.OXZ X i.l.;X3X2X<X>X;X$Xt.fXfX",
"fXfXfXfXw.b.S.D.T.(.'.m ! '.+X@X@XoXOX].r.fXfXfX",
"fXfXfXfXfXw.h.b.M.A.F.I.C.E.Q.Q.Q.E.E.e.fXfXfXfX",
"fXfXfXfXfXfX>.4.w.f.h.k.C.C.C.C.C.A.W fXfXfXfXfX",
"fXfXfXfXfXfXfX:.;.<.1.6.6.d.9.9.d.R fXfXfXfXfXfX",
"fXfXfXfXfXfXfX# %.%.*.*.;.;.;.:.m fXfXfXfXfXfXfX",
"fXfXfXfXfXfXA # v b b P Y Y Y Y o + fXfXfXfXfXfX",
"fXfXfXfXfXc.T j h h h f f f f p c B M fXfXfXfXfX",
"fXfXfXfXY.s.j y y 8 8 8 y y , , y e V C fXfXfXfX",
"fXfXfXc.5.j > , > , , , f , , , 8 8 8 J C fXfXfX",
"fXfXu.,.c : : : , : p d fXy : y : : : , K C fXfX",
"fXfX~ p 2 2 4 2 2 a % fXfXfXp p 2 2 4 4 4 K fXfX",
"fXfX#.( ( / / ( ) & fXfXfXfXfX) ( ( / ( ( #.fXfX",
"fXfX8 ] { { { ] * fXfXfXfXfXfXfX]  .{ { { - fXfX",
"fXfXfXy o.} X.- fXfXfXfXfXfXfXfXfXO.X.X.8 fXfXfX",
"fXfXfXfX, @.e fXfXfXfXfXfXfXfXfXfX8 @.y fXfXfXfX",
"fXfXfXfXfX. fXfXfXfXfXfXfXfXfXfXfXfX. fXfXfXfXfX",
"fXfXfXfXfXfXfXfXfXfXfXfXfXfXfXfXfXfXfXfXfXfXfXfX"
};
